<mxfile>
    <diagram id="C5RBs43oDa-KdzZeNtuy" name="Page-1">
        <mxGraphModel dx="1416" dy="644" grid="1" gridSize="10" guides="1" tooltips="1" connect="1" arrows="1" fold="1" page="1" pageScale="1" pageWidth="4681" pageHeight="3300" background="#999999" math="0" shadow="0">
            <root>
                <mxCell id="WIyWlLk6GJQsqaUBKTNV-0"/>
                <mxCell id="WIyWlLk6GJQsqaUBKTNV-1" parent="WIyWlLk6GJQsqaUBKTNV-0"/>
                <mxCell id="fqcewuSSMCK2G5kB7QlD-0" value="Rocket" style="swimlane;fontStyle=1;align=center;verticalAlign=top;childLayout=stackLayout;horizontal=1;startSize=26;horizontalStack=0;resizeParent=1;resizeParentMax=0;resizeLast=0;collapsible=1;marginBottom=0;" parent="WIyWlLk6GJQsqaUBKTNV-1" vertex="1">
                    <mxGeometry x="920" y="370" width="160" height="144" as="geometry"/>
                </mxCell>
                <mxCell id="fqcewuSSMCK2G5kB7QlD-1" value="- Name: str&#10;- Components: list&#10;- Constraints: list&#10;- Interfaces: list&#10;- Assembly: list" style="text;align=left;verticalAlign=top;spacingLeft=4;spacingRight=4;overflow=hidden;rotatable=0;points=[[0,0.5],[1,0.5]];portConstraint=eastwest;" parent="fqcewuSSMCK2G5kB7QlD-0" vertex="1">
                    <mxGeometry y="26" width="160" height="84" as="geometry"/>
                </mxCell>
                <mxCell id="fqcewuSSMCK2G5kB7QlD-2" value="" style="line;strokeWidth=1;fillColor=none;align=left;verticalAlign=middle;spacingTop=-1;spacingLeft=3;spacingRight=3;rotatable=0;labelPosition=right;points=[];portConstraint=eastwest;" parent="fqcewuSSMCK2G5kB7QlD-0" vertex="1">
                    <mxGeometry y="110" width="160" height="8" as="geometry"/>
                </mxCell>
                <mxCell id="fqcewuSSMCK2G5kB7QlD-3" value="+ method(type): type" style="text;align=left;verticalAlign=top;spacingLeft=4;spacingRight=4;overflow=hidden;rotatable=0;points=[[0,0.5],[1,0.5]];portConstraint=eastwest;" parent="fqcewuSSMCK2G5kB7QlD-0" vertex="1">
                    <mxGeometry y="118" width="160" height="26" as="geometry"/>
                </mxCell>
                <mxCell id="fqcewuSSMCK2G5kB7QlD-42" style="edgeStyle=orthogonalEdgeStyle;rounded=1;orthogonalLoop=1;jettySize=auto;html=1;entryX=0;entryY=0.5;entryDx=0;entryDy=0;endArrow=diamondThin;endFill=0;strokeWidth=2;endSize=10;" parent="WIyWlLk6GJQsqaUBKTNV-1" source="fqcewuSSMCK2G5kB7QlD-13" target="fqcewuSSMCK2G5kB7QlD-1" edge="1">
                    <mxGeometry relative="1" as="geometry"/>
                </mxCell>
                <mxCell id="fqcewuSSMCK2G5kB7QlD-13" value="Component" style="swimlane;fontStyle=1;align=center;verticalAlign=top;childLayout=stackLayout;horizontal=1;startSize=26;horizontalStack=0;resizeParent=1;resizeParentMax=0;resizeLast=0;collapsible=1;marginBottom=0;" parent="WIyWlLk6GJQsqaUBKTNV-1" vertex="1">
                    <mxGeometry x="720" y="560" width="160" height="204" as="geometry"/>
                </mxCell>
                <mxCell id="fqcewuSSMCK2G5kB7QlD-14" value="- Name: str&#10;- Material: str&#10;- Top_position: float 3D&#10;- Density: float&#10;- Mass: float&#10;- Parameters: dict&#10;- Subparts: list of objects&#10;- ID: int&#10;- Job: list of Process()" style="text;strokeColor=none;fillColor=none;align=left;verticalAlign=top;spacingLeft=4;spacingRight=4;overflow=hidden;rotatable=0;points=[[0,0.5],[1,0.5]];portConstraint=eastwest;" parent="fqcewuSSMCK2G5kB7QlD-13" vertex="1">
                    <mxGeometry y="26" width="160" height="144" as="geometry"/>
                </mxCell>
                <mxCell id="fqcewuSSMCK2G5kB7QlD-15" value="" style="line;strokeWidth=1;fillColor=none;align=left;verticalAlign=middle;spacingTop=-1;spacingLeft=3;spacingRight=3;rotatable=0;labelPosition=right;points=[];portConstraint=eastwest;" parent="fqcewuSSMCK2G5kB7QlD-13" vertex="1">
                    <mxGeometry y="170" width="160" height="8" as="geometry"/>
                </mxCell>
                <mxCell id="fqcewuSSMCK2G5kB7QlD-16" value="+ method(type): type" style="text;strokeColor=none;fillColor=none;align=left;verticalAlign=top;spacingLeft=4;spacingRight=4;overflow=hidden;rotatable=0;points=[[0,0.5],[1,0.5]];portConstraint=eastwest;" parent="fqcewuSSMCK2G5kB7QlD-13" vertex="1">
                    <mxGeometry y="178" width="160" height="26" as="geometry"/>
                </mxCell>
                <mxCell id="fqcewuSSMCK2G5kB7QlD-43" style="edgeStyle=orthogonalEdgeStyle;rounded=1;orthogonalLoop=1;jettySize=auto;html=1;entryX=1;entryY=0.5;entryDx=0;entryDy=0;endArrow=diamondThin;endFill=0;strokeWidth=2;" parent="WIyWlLk6GJQsqaUBKTNV-1" source="fqcewuSSMCK2G5kB7QlD-17" target="fqcewuSSMCK2G5kB7QlD-1" edge="1">
                    <mxGeometry relative="1" as="geometry"/>
                </mxCell>
                <mxCell id="fqcewuSSMCK2G5kB7QlD-17" value="Interface" style="swimlane;fontStyle=1;align=center;verticalAlign=top;childLayout=stackLayout;horizontal=1;startSize=26;horizontalStack=0;resizeParent=1;resizeParentMax=0;resizeLast=0;collapsible=1;marginBottom=0;" parent="WIyWlLk6GJQsqaUBKTNV-1" vertex="1">
                    <mxGeometry x="1120" y="560" width="160" height="134" as="geometry"/>
                </mxCell>
                <mxCell id="fqcewuSSMCK2G5kB7QlD-18" value="- Name: str&#10;- Components: list&#10;- Parameters: dict&#10;- Jobs: list of Process()" style="text;strokeColor=none;fillColor=none;align=left;verticalAlign=top;spacingLeft=4;spacingRight=4;overflow=hidden;rotatable=0;points=[[0,0.5],[1,0.5]];portConstraint=eastwest;" parent="fqcewuSSMCK2G5kB7QlD-17" vertex="1">
                    <mxGeometry y="26" width="160" height="74" as="geometry"/>
                </mxCell>
                <mxCell id="fqcewuSSMCK2G5kB7QlD-19" value="" style="line;strokeWidth=1;fillColor=none;align=left;verticalAlign=middle;spacingTop=-1;spacingLeft=3;spacingRight=3;rotatable=0;labelPosition=right;points=[];portConstraint=eastwest;" parent="fqcewuSSMCK2G5kB7QlD-17" vertex="1">
                    <mxGeometry y="100" width="160" height="8" as="geometry"/>
                </mxCell>
                <mxCell id="fqcewuSSMCK2G5kB7QlD-20" value="+ method(type): type" style="text;strokeColor=none;fillColor=none;align=left;verticalAlign=top;spacingLeft=4;spacingRight=4;overflow=hidden;rotatable=0;points=[[0,0.5],[1,0.5]];portConstraint=eastwest;" parent="fqcewuSSMCK2G5kB7QlD-17" vertex="1">
                    <mxGeometry y="108" width="160" height="26" as="geometry"/>
                </mxCell>
                <mxCell id="fqcewuSSMCK2G5kB7QlD-21" value="Engineer" style="swimlane;fontStyle=1;align=center;verticalAlign=top;childLayout=stackLayout;horizontal=1;startSize=26;horizontalStack=0;resizeParent=1;resizeParentMax=0;resizeLast=0;collapsible=1;marginBottom=0;" parent="WIyWlLk6GJQsqaUBKTNV-1" vertex="1">
                    <mxGeometry x="720" y="1041" width="160" height="144" as="geometry"/>
                </mxCell>
                <mxCell id="fqcewuSSMCK2G5kB7QlD-22" value="- Name: str&#10;- Year: int&#10;- Tools: list&#10;- Experience: int&#10;- Availability" style="text;strokeColor=none;fillColor=none;align=left;verticalAlign=top;spacingLeft=4;spacingRight=4;overflow=hidden;rotatable=0;points=[[0,0.5],[1,0.5]];portConstraint=eastwest;" parent="fqcewuSSMCK2G5kB7QlD-21" vertex="1">
                    <mxGeometry y="26" width="160" height="84" as="geometry"/>
                </mxCell>
                <mxCell id="fqcewuSSMCK2G5kB7QlD-23" value="" style="line;strokeWidth=1;fillColor=none;align=left;verticalAlign=middle;spacingTop=-1;spacingLeft=3;spacingRight=3;rotatable=0;labelPosition=right;points=[];portConstraint=eastwest;" parent="fqcewuSSMCK2G5kB7QlD-21" vertex="1">
                    <mxGeometry y="110" width="160" height="8" as="geometry"/>
                </mxCell>
                <mxCell id="fqcewuSSMCK2G5kB7QlD-24" value="+ method(type): type" style="text;strokeColor=none;fillColor=none;align=left;verticalAlign=top;spacingLeft=4;spacingRight=4;overflow=hidden;rotatable=0;points=[[0,0.5],[1,0.5]];portConstraint=eastwest;" parent="fqcewuSSMCK2G5kB7QlD-21" vertex="1">
                    <mxGeometry y="118" width="160" height="26" as="geometry"/>
                </mxCell>
                <mxCell id="fqcewuSSMCK2G5kB7QlD-53" style="edgeStyle=orthogonalEdgeStyle;rounded=1;orthogonalLoop=1;jettySize=auto;html=1;endArrow=diamondThin;endFill=0;strokeWidth=2;exitX=0.5;exitY=0;exitDx=0;exitDy=0;" parent="WIyWlLk6GJQsqaUBKTNV-1" source="fqcewuSSMCK2G5kB7QlD-21" target="fqcewuSSMCK2G5kB7QlD-25" edge="1">
                    <mxGeometry relative="1" as="geometry"/>
                </mxCell>
                <mxCell id="fqcewuSSMCK2G5kB7QlD-56" style="edgeStyle=orthogonalEdgeStyle;rounded=1;orthogonalLoop=1;jettySize=auto;html=1;endArrow=none;endFill=0;strokeWidth=2;" parent="WIyWlLk6GJQsqaUBKTNV-1" source="fqcewuSSMCK2G5kB7QlD-25" edge="1">
                    <mxGeometry relative="1" as="geometry">
                        <mxPoint x="800" y="764" as="targetPoint"/>
                        <Array as="points">
                            <mxPoint x="800" y="764"/>
                        </Array>
                    </mxGeometry>
                </mxCell>
                <mxCell id="fqcewuSSMCK2G5kB7QlD-64" style="edgeStyle=orthogonalEdgeStyle;curved=1;orthogonalLoop=1;jettySize=auto;html=1;endArrow=open;endFill=0;strokeWidth=2;dashed=1;" parent="WIyWlLk6GJQsqaUBKTNV-1" source="fqcewuSSMCK2G5kB7QlD-25" edge="1">
                    <mxGeometry relative="1" as="geometry">
                        <mxPoint x="1119" y="890" as="targetPoint"/>
                        <Array as="points">
                            <mxPoint x="1060" y="890"/>
                            <mxPoint x="1060" y="890"/>
                        </Array>
                    </mxGeometry>
                </mxCell>
                <mxCell id="fqcewuSSMCK2G5kB7QlD-25" value="Group" style="swimlane;fontStyle=1;align=center;verticalAlign=top;childLayout=stackLayout;horizontal=1;startSize=26;horizontalStack=0;resizeParent=1;resizeParentMax=0;resizeLast=0;collapsible=1;marginBottom=0;" parent="WIyWlLk6GJQsqaUBKTNV-1" vertex="1">
                    <mxGeometry x="720" y="840" width="160" height="144" as="geometry"/>
                </mxCell>
                <mxCell id="fqcewuSSMCK2G5kB7QlD-26" value="- ID: int&#10;- Engineers: list of objects&#10;- Availability&#10;- Tools: list&#10;- Total_Experience: int" style="text;strokeColor=none;fillColor=none;align=left;verticalAlign=top;spacingLeft=4;spacingRight=4;overflow=hidden;rotatable=0;points=[[0,0.5],[1,0.5]];portConstraint=eastwest;" parent="fqcewuSSMCK2G5kB7QlD-25" vertex="1">
                    <mxGeometry y="26" width="160" height="84" as="geometry"/>
                </mxCell>
                <mxCell id="fqcewuSSMCK2G5kB7QlD-27" value="" style="line;strokeWidth=1;fillColor=none;align=left;verticalAlign=middle;spacingTop=-1;spacingLeft=3;spacingRight=3;rotatable=0;labelPosition=right;points=[];portConstraint=eastwest;" parent="fqcewuSSMCK2G5kB7QlD-25" vertex="1">
                    <mxGeometry y="110" width="160" height="8" as="geometry"/>
                </mxCell>
                <mxCell id="fqcewuSSMCK2G5kB7QlD-28" value="+ method(type): type" style="text;strokeColor=none;fillColor=none;align=left;verticalAlign=top;spacingLeft=4;spacingRight=4;overflow=hidden;rotatable=0;points=[[0,0.5],[1,0.5]];portConstraint=eastwest;" parent="fqcewuSSMCK2G5kB7QlD-25" vertex="1">
                    <mxGeometry y="118" width="160" height="26" as="geometry"/>
                </mxCell>
                <mxCell id="fqcewuSSMCK2G5kB7QlD-29" value="Tool" style="swimlane;fontStyle=1;align=center;verticalAlign=top;childLayout=stackLayout;horizontal=1;startSize=26;horizontalStack=0;resizeParent=1;resizeParentMax=0;resizeLast=0;collapsible=1;marginBottom=0;" parent="WIyWlLk6GJQsqaUBKTNV-1" vertex="1">
                    <mxGeometry x="1000" y="1041" width="160" height="144" as="geometry"/>
                </mxCell>
                <mxCell id="fqcewuSSMCK2G5kB7QlD-30" value="- Name: str&#10;- Usage_notes: str" style="text;strokeColor=none;fillColor=none;align=left;verticalAlign=top;spacingLeft=4;spacingRight=4;overflow=hidden;rotatable=0;points=[[0,0.5],[1,0.5]];portConstraint=eastwest;" parent="fqcewuSSMCK2G5kB7QlD-29" vertex="1">
                    <mxGeometry y="26" width="160" height="84" as="geometry"/>
                </mxCell>
                <mxCell id="fqcewuSSMCK2G5kB7QlD-31" value="" style="line;strokeWidth=1;fillColor=none;align=left;verticalAlign=middle;spacingTop=-1;spacingLeft=3;spacingRight=3;rotatable=0;labelPosition=right;points=[];portConstraint=eastwest;" parent="fqcewuSSMCK2G5kB7QlD-29" vertex="1">
                    <mxGeometry y="110" width="160" height="8" as="geometry"/>
                </mxCell>
                <mxCell id="fqcewuSSMCK2G5kB7QlD-32" value="+ method(type): type" style="text;strokeColor=none;fillColor=none;align=left;verticalAlign=top;spacingLeft=4;spacingRight=4;overflow=hidden;rotatable=0;points=[[0,0.5],[1,0.5]];portConstraint=eastwest;" parent="fqcewuSSMCK2G5kB7QlD-29" vertex="1">
                    <mxGeometry y="118" width="160" height="26" as="geometry"/>
                </mxCell>
                <mxCell id="fqcewuSSMCK2G5kB7QlD-54" style="edgeStyle=orthogonalEdgeStyle;rounded=1;orthogonalLoop=1;jettySize=auto;html=1;dashed=1;endArrow=open;endFill=0;strokeWidth=2;" parent="WIyWlLk6GJQsqaUBKTNV-1" source="fqcewuSSMCK2G5kB7QlD-33" edge="1">
                    <mxGeometry relative="1" as="geometry">
                        <mxPoint x="1200" y="694" as="targetPoint"/>
                        <Array as="points">
                            <mxPoint x="1200" y="694"/>
                        </Array>
                    </mxGeometry>
                </mxCell>
                <mxCell id="fqcewuSSMCK2G5kB7QlD-33" value="Process" style="swimlane;fontStyle=1;align=center;verticalAlign=top;childLayout=stackLayout;horizontal=1;startSize=26;horizontalStack=0;resizeParent=1;resizeParentMax=0;resizeLast=0;collapsible=1;marginBottom=0;" parent="WIyWlLk6GJQsqaUBKTNV-1" vertex="1">
                    <mxGeometry x="1120" y="840" width="160" height="144" as="geometry"/>
                </mxCell>
                <mxCell id="fqcewuSSMCK2G5kB7QlD-34" value="- Name: str&#10;- Description: str&#10;- Tools: list&#10;- Room: str&#10;- Complexity: int" style="text;strokeColor=none;fillColor=none;align=left;verticalAlign=top;spacingLeft=4;spacingRight=4;overflow=hidden;rotatable=0;points=[[0,0.5],[1,0.5]];portConstraint=eastwest;" parent="fqcewuSSMCK2G5kB7QlD-33" vertex="1">
                    <mxGeometry y="26" width="160" height="84" as="geometry"/>
                </mxCell>
                <mxCell id="fqcewuSSMCK2G5kB7QlD-35" value="" style="line;strokeWidth=1;fillColor=none;align=left;verticalAlign=middle;spacingTop=-1;spacingLeft=3;spacingRight=3;rotatable=0;labelPosition=right;points=[];portConstraint=eastwest;" parent="fqcewuSSMCK2G5kB7QlD-33" vertex="1">
                    <mxGeometry y="110" width="160" height="8" as="geometry"/>
                </mxCell>
                <mxCell id="fqcewuSSMCK2G5kB7QlD-36" value="+ method(type): type" style="text;strokeColor=none;fillColor=none;align=left;verticalAlign=top;spacingLeft=4;spacingRight=4;overflow=hidden;rotatable=0;points=[[0,0.5],[1,0.5]];portConstraint=eastwest;" parent="fqcewuSSMCK2G5kB7QlD-33" vertex="1">
                    <mxGeometry y="118" width="160" height="26" as="geometry"/>
                </mxCell>
                <mxCell id="fqcewuSSMCK2G5kB7QlD-37" value="Room" style="swimlane;fontStyle=1;align=center;verticalAlign=top;childLayout=stackLayout;horizontal=1;startSize=26;horizontalStack=0;resizeParent=1;resizeParentMax=0;resizeLast=0;collapsible=1;marginBottom=0;" parent="WIyWlLk6GJQsqaUBKTNV-1" vertex="1">
                    <mxGeometry x="1240" y="1041" width="160" height="144" as="geometry"/>
                </mxCell>
                <mxCell id="fqcewuSSMCK2G5kB7QlD-38" value="- Number: str&#10;- Building: str&#10;- Address: str&#10;- Max_occupancy: int&#10;- Tools: dict" style="text;strokeColor=none;fillColor=none;align=left;verticalAlign=top;spacingLeft=4;spacingRight=4;overflow=hidden;rotatable=0;points=[[0,0.5],[1,0.5]];portConstraint=eastwest;" parent="fqcewuSSMCK2G5kB7QlD-37" vertex="1">
                    <mxGeometry y="26" width="160" height="84" as="geometry"/>
                </mxCell>
                <mxCell id="fqcewuSSMCK2G5kB7QlD-39" value="" style="line;strokeWidth=1;fillColor=none;align=left;verticalAlign=middle;spacingTop=-1;spacingLeft=3;spacingRight=3;rotatable=0;labelPosition=right;points=[];portConstraint=eastwest;" parent="fqcewuSSMCK2G5kB7QlD-37" vertex="1">
                    <mxGeometry y="110" width="160" height="8" as="geometry"/>
                </mxCell>
                <mxCell id="fqcewuSSMCK2G5kB7QlD-40" value="+ method(type): type" style="text;strokeColor=none;fillColor=none;align=left;verticalAlign=top;spacingLeft=4;spacingRight=4;overflow=hidden;rotatable=0;points=[[0,0.5],[1,0.5]];portConstraint=eastwest;" parent="fqcewuSSMCK2G5kB7QlD-37" vertex="1">
                    <mxGeometry y="118" width="160" height="26" as="geometry"/>
                </mxCell>
                <mxCell id="fqcewuSSMCK2G5kB7QlD-46" style="edgeStyle=orthogonalEdgeStyle;rounded=1;orthogonalLoop=1;jettySize=auto;html=1;endArrow=open;endFill=0;strokeWidth=2;dashed=1;" parent="WIyWlLk6GJQsqaUBKTNV-1" edge="1">
                    <mxGeometry relative="1" as="geometry">
                        <mxPoint x="1120" y="610" as="sourcePoint"/>
                        <mxPoint x="881" y="610" as="targetPoint"/>
                        <Array as="points">
                            <mxPoint x="1120" y="610"/>
                            <mxPoint x="881" y="610"/>
                        </Array>
                    </mxGeometry>
                </mxCell>
                <mxCell id="fqcewuSSMCK2G5kB7QlD-48" style="edgeStyle=orthogonalEdgeStyle;rounded=1;orthogonalLoop=1;jettySize=auto;html=1;entryX=0;entryY=0.5;entryDx=0;entryDy=0;endArrow=none;endFill=0;strokeWidth=2;" parent="WIyWlLk6GJQsqaUBKTNV-1" source="fqcewuSSMCK2G5kB7QlD-22" target="fqcewuSSMCK2G5kB7QlD-30" edge="1">
                    <mxGeometry relative="1" as="geometry"/>
                </mxCell>
                <mxCell id="fqcewuSSMCK2G5kB7QlD-51" style="edgeStyle=orthogonalEdgeStyle;rounded=1;orthogonalLoop=1;jettySize=auto;html=1;entryX=0.5;entryY=0;entryDx=0;entryDy=0;dashed=1;endArrow=open;endFill=0;strokeWidth=2;" parent="WIyWlLk6GJQsqaUBKTNV-1" source="fqcewuSSMCK2G5kB7QlD-36" target="fqcewuSSMCK2G5kB7QlD-29" edge="1">
                    <mxGeometry relative="1" as="geometry"/>
                </mxCell>
                <mxCell id="fqcewuSSMCK2G5kB7QlD-52" style="edgeStyle=orthogonalEdgeStyle;rounded=1;orthogonalLoop=1;jettySize=auto;html=1;entryX=0.5;entryY=0;entryDx=0;entryDy=0;dashed=1;endArrow=open;endFill=0;strokeWidth=2;" parent="WIyWlLk6GJQsqaUBKTNV-1" source="fqcewuSSMCK2G5kB7QlD-36" target="fqcewuSSMCK2G5kB7QlD-37" edge="1">
                    <mxGeometry relative="1" as="geometry"/>
                </mxCell>
                <mxCell id="fqcewuSSMCK2G5kB7QlD-61" value="" style="endArrow=none;html=1;strokeWidth=2;exitX=1;exitY=0;exitDx=0;exitDy=0;entryX=0;entryY=0.974;entryDx=0;entryDy=0;endFill=0;entryPerimeter=0;" parent="WIyWlLk6GJQsqaUBKTNV-1" source="fqcewuSSMCK2G5kB7QlD-25" target="fqcewuSSMCK2G5kB7QlD-20" edge="1">
                    <mxGeometry width="50" height="50" relative="1" as="geometry">
                        <mxPoint x="930" y="788" as="sourcePoint"/>
                        <mxPoint x="980" y="738" as="targetPoint"/>
                    </mxGeometry>
                </mxCell>
                <mxCell id="fqcewuSSMCK2G5kB7QlD-62" value="" style="endArrow=open;html=1;dashed=1;strokeWidth=2;exitX=0;exitY=0;exitDx=0;exitDy=0;entryX=1.004;entryY=1.013;entryDx=0;entryDy=0;endFill=0;entryPerimeter=0;" parent="WIyWlLk6GJQsqaUBKTNV-1" source="fqcewuSSMCK2G5kB7QlD-33" target="fqcewuSSMCK2G5kB7QlD-16" edge="1">
                    <mxGeometry width="50" height="50" relative="1" as="geometry">
                        <mxPoint x="990" y="680" as="sourcePoint"/>
                        <mxPoint x="1040" y="630" as="targetPoint"/>
                    </mxGeometry>
                </mxCell>
                <mxCell id="fqcewuSSMCK2G5kB7QlD-63" style="edgeStyle=orthogonalEdgeStyle;curved=1;orthogonalLoop=1;jettySize=auto;html=1;entryX=1;entryY=0.5;entryDx=0;entryDy=0;endArrow=none;endFill=0;strokeWidth=2;" parent="WIyWlLk6GJQsqaUBKTNV-1" source="fqcewuSSMCK2G5kB7QlD-38" target="fqcewuSSMCK2G5kB7QlD-30" edge="1">
                    <mxGeometry relative="1" as="geometry"/>
                </mxCell>
                <mxCell id="2" style="edgeStyle=orthogonalEdgeStyle;rounded=0;orthogonalLoop=1;jettySize=auto;html=1;entryX=0;entryY=0.058;entryDx=0;entryDy=0;entryPerimeter=0;endArrow=diamondThin;endFill=0;endSize=10;strokeWidth=2;" edge="1" parent="WIyWlLk6GJQsqaUBKTNV-1" source="1" target="fqcewuSSMCK2G5kB7QlD-1">
                    <mxGeometry relative="1" as="geometry">
                        <Array as="points">
                            <mxPoint x="920" y="401"/>
                        </Array>
                    </mxGeometry>
                </mxCell>
                <mxCell id="1" value="&lt;p style=&quot;margin: 0px ; margin-top: 4px ; text-align: center&quot;&gt;&lt;b&gt;Constraint&lt;/b&gt;&lt;/p&gt;&lt;hr size=&quot;1&quot;&gt;&lt;p style=&quot;margin: 0px ; margin-left: 4px&quot;&gt;+ field: Type&lt;/p&gt;&lt;hr size=&quot;1&quot;&gt;&lt;p style=&quot;margin: 0px ; margin-left: 4px&quot;&gt;+ method(): Type&lt;/p&gt;" style="verticalAlign=top;align=left;overflow=fill;fontSize=12;fontFamily=Helvetica;html=1;" vertex="1" parent="WIyWlLk6GJQsqaUBKTNV-1">
                    <mxGeometry x="560" y="370" width="160" height="90" as="geometry"/>
                </mxCell>
            </root>
        </mxGraphModel>
    </diagram>
</mxfile>